<?xml version="1.0" encoding="UTF-8"?>
<svg id="Layer_1" data-name="Layer 1" xmlns="http://www.w3.org/2000/svg" viewBox="0 0 425.2 425.2">
  <defs>
    <style>
      .cls-1 {
        fill: #8c1b44;
      }

      .cls-2 {
        fill: #312c4f;
        font-family: Oscine-BoldItalic, Oscine;
        font-size: 28.06px;
        font-style: italic;
        font-weight: 700;
      }

      .cls-3 {
        letter-spacing: .02em;
      }

      .cls-4 {
        letter-spacing: -.02em;
      }

      .cls-5 {
        letter-spacing: -.02em;
      }

      .cls-6 {
        letter-spacing: -.03em;
      }
    </style>
  </defs>
  <g>
    <path class="cls-1" d="m33.18,159.61c-.34-.63-.85-.95-1.53-.95-.78,0-1.12-.32-1.02-.95.1-.63.53-.95,1.32-.95h20.9c.78,0,1.12.32,1.02.95-.1.63-.54.95-1.32.95-.68,0-1.29.32-1.83.95-.54.63-.9,1.34-1.1,2.12l-5.85,33.91c.78-1.07,1.75-1.85,2.92-2.34,1.17-.49,2.43-.73,3.8-.73,1.95,0,3.75.73,5.41,2.19,1.66,1.46,2.82,3.17,3.51,5.12l6.72-38.14c.19-.78.12-1.48-.22-2.12-.34-.63-.85-.95-1.53-.95-.78,0-1.12-.32-1.02-.95.1-.63.53-.95,1.32-.95h20.9c.78,0,1.12.32,1.02.95-.1.63-.54.95-1.32.95-.68,0-1.32.32-1.9.95-.58.63-.98,1.34-1.17,2.12l-13.15,74.53c-.1.78.05,1.49.44,2.12.39.63.92.95,1.61.95.78,0,1.12.32,1.02.95-.1.63-.54.95-1.32.95h-20.9c-.78,0-1.12-.32-1.02-.95.1-.63.53-.95,1.32-.95.68,0,1.29-.32,1.83-.95.53-.63.85-1.34.95-2.12l4.24-23.24c.39-2.63.12-4.82-.8-6.58-.93-1.75-2.14-3.02-3.65-3.8-1.51-.78-3.12-1.07-4.82-.88-1.71.2-3.09.93-4.17,2.19-.58-.19-1.02-.53-1.32-1.02l-5.99,33.32c-.1.78.02,1.49.37,2.12.34.63.85.95,1.53.95.78,0,1.12.32,1.02.95-.1.63-.54.95-1.32.95h-20.9c-.78,0-1.12-.32-1.02-.95.1-.63.53-.95,1.32-.95.68,0,1.29-.32,1.83-.95.53-.63.85-1.34.95-2.12l13.15-74.53c.19-.78.12-1.48-.22-2.12Z"/>
    <path class="cls-1" d="m109.26,157.61c4.25,0,7.51,1.19,9.76,3.56,2.25,2.37,3.78,5.36,4.6,8.96.82,3.6,1.11,7.55.86,11.85s-.7,8.37-1.35,12.21c-.66,3.85-1.62,7.94-2.89,12.28-1.27,4.34-2.97,8.31-5.09,11.91-2.13,3.6-4.73,6.59-7.79,8.96-3.07,2.37-6.73,3.56-10.99,3.56s-7.49-1.19-9.7-3.56c-2.21-2.37-3.74-5.36-4.6-8.96-.86-3.6-1.17-7.57-.92-11.91.24-4.34.69-8.43,1.35-12.28.65-3.85,1.64-7.92,2.95-12.21,1.31-4.3,3.01-8.24,5.09-11.85,2.09-3.6,4.67-6.59,7.73-8.96,3.07-2.37,6.73-3.56,10.99-3.56Zm-13.26,36.58c-.17,1.07-.41,2.52-.74,4.36-.33,1.84-.61,3.85-.86,6.02-.25,2.17-.43,4.38-.55,6.63-.12,2.25-.1,4.28.06,6.08.16,1.8.53,3.27,1.1,4.42.57,1.15,1.43,1.72,2.58,1.72s2.21-.57,3.19-1.72c.98-1.15,1.88-2.62,2.7-4.42.82-1.8,1.57-3.82,2.27-6.08.69-2.25,1.29-4.46,1.78-6.63.49-2.17.92-4.17,1.29-6.02.37-1.84.63-3.29.8-4.36.16-1.06.41-2.54.74-4.42.33-1.88.61-3.91.86-6.08.24-2.17.43-4.36.55-6.57.12-2.21.08-4.23-.12-6.08-.21-1.84-.59-3.33-1.17-4.48-.57-1.14-1.43-1.72-2.58-1.72s-2.21.57-3.19,1.72c-.98,1.15-1.88,2.64-2.7,4.48-.82,1.84-1.56,3.87-2.21,6.08-.66,2.21-1.23,4.4-1.72,6.57-.49,2.17-.92,4.19-1.29,6.08s-.63,3.36-.8,4.42Z"/>
    <path class="cls-1" d="m134.57,162.76c.16-.65.1-1.25-.18-1.78-.29-.53-.72-.8-1.29-.8-.66,0-.94-.26-.86-.8.08-.53.45-.8,1.1-.8h15.59c7.69,0,13.18,1.82,16.45,5.46,3.27,3.64,4.42,8.29,3.44,13.93-.82,4.34-2.62,8.08-5.4,11.23-2.78,3.15-6.51,5.42-11.17,6.81.57.08,1.17.14,1.78.18.61.04,1.25.06,1.9.06l3.07,29.09c.16.66.47,1.25.92,1.78.45.53.92.8,1.41.8.65,0,1.02.27,1.1.8.08.53-.21.8-.86.8h-15.22l-3.44-32.16c-.17.08-.41.12-.74.12l-5.03,27.87c-.08.66.02,1.25.31,1.78.29.53.72.8,1.29.8.65,0,.94.27.86.8-.08.53-.45.8-1.11.8h-17.55c-.66,0-.94-.26-.86-.8.08-.53.45-.8,1.11-.8.57,0,1.08-.26,1.53-.8.45-.53.72-1.12.8-1.78l11.05-62.61Zm8.59,28.73c1.39,0,2.76-.22,4.11-.68,1.35-.45,2.6-1.21,3.74-2.27,1.14-1.06,2.17-2.45,3.07-4.17.9-1.72,1.6-3.85,2.09-6.38.41-2.54.47-4.62.18-6.26-.29-1.64-.84-2.93-1.66-3.87-.82-.94-1.82-1.6-3.01-1.96-1.19-.37-2.48-.55-3.87-.55l-4.67,26.15Z"/>
    <path class="cls-1" d="m203.7,172.7c.41-2.45-.04-4.34-1.35-5.65-1.31-1.31-2.95-1.96-4.91-1.96-2.13,0-3.87.76-5.22,2.28-1.35,1.52-2.23,3.34-2.64,5.47-.33,1.97-.06,3.69.8,5.17.86,1.48,2,2.93,3.44,4.37,1.43,1.44,2.99,2.93,4.66,4.49,1.68,1.56,3.17,3.36,4.48,5.41,1.31,2.05,2.27,4.47,2.89,7.26.61,2.79.59,6.11-.06,9.96-.66,3.53-1.84,6.62-3.56,9.29-1.72,2.67-3.83,4.9-6.32,6.7-2.5,1.8-5.26,3.16-8.29,4.06-3.03.9-6.14,1.35-9.33,1.35-4.09,0-7.41-1.02-9.94-3.07-.24.25-.53.61-.86,1.1-.16.49-.47.72-.92.68-.45-.04-.63-.39-.55-1.04l2.58-14.98c.16-.9.57-1.33,1.23-1.29.66.04.9.47.74,1.29-.49,3.03.16,5.38,1.96,7.06,1.8,1.68,3.97,2.52,6.51,2.52,1.31,0,2.66-.25,4.05-.74,1.39-.49,2.7-1.25,3.93-2.27,1.23-1.02,2.29-2.35,3.19-3.99.9-1.64,1.55-3.56,1.96-5.77.49-2.62.33-4.89-.49-6.81-.82-1.92-1.94-3.68-3.38-5.28s-3.01-3.13-4.73-4.6-3.27-3.07-4.67-4.79c-1.39-1.72-2.46-3.66-3.19-5.83-.74-2.17-.86-4.77-.37-7.8.49-2.7,1.41-5.16,2.76-7.37,1.35-2.21,2.99-4.07,4.91-5.59,1.92-1.51,4.09-2.68,6.51-3.5,2.41-.82,4.97-1.23,7.67-1.23,1.55,0,3.13.22,4.73.66,1.6.44,2.84,1.11,3.74,1.99.33-.16.66-.52.98-1.09.16-.48.47-.7.92-.66.45.04.59.38.43,1.02l-2.33,13.17c-.16.9-.57,1.33-1.23,1.29-.66-.04-.9-.47-.74-1.29Z"/>
    <path class="cls-1" d="m248.51,158.59l.25,13.38c0,.9-.39,1.47-1.17,1.72-.78.25-1.29.04-1.53-.61-.74-2.29-1.62-4.15-2.64-5.59-1.02-1.43-2.84-2.15-5.46-2.15h-6.14l-4.3,24.31c1.14-1.64,2.62-3.07,4.42-4.3,1.8-1.23,3.52-1.84,5.16-1.84s3.11.51,4.17,1.53c1.06,1.02,1.43,2.44,1.11,4.23-.17.9-.49,1.7-.98,2.39-.49.7-1.19,1.17-2.09,1.41-.49-1.06-1.41-1.68-2.76-1.84-1.35-.16-2.76.08-4.24.74-1.47.66-2.87,1.72-4.17,3.19-1.31,1.47-2.17,3.31-2.58,5.52l-3.93,22.1h6.14c2.62,0,4.97-.71,7.06-2.15,2.09-1.43,3.87-3.25,5.34-5.46.49-.65,1.11-.86,1.84-.61.74.25.94.78.61,1.6l-6.51,13.38h-31.18c-.66,0-.94-.26-.86-.8.08-.53.45-.8,1.1-.8.57,0,1.08-.26,1.53-.8.45-.53.72-1.12.8-1.78l11.05-62.61c.16-.65.1-1.25-.18-1.78-.29-.53-.72-.8-1.29-.8-.66,0-.94-.26-.86-.8.08-.53.45-.8,1.1-.8h31.18Z"/>
    <path class="cls-1" d="m262.66,176.63l-8.59,48.74c-.08.66.04,1.25.37,1.78.33.53.78.8,1.35.8.66,0,.94.27.86.8-.08.53-.45.8-1.11.8h-10.8c-.66,0-.94-.26-.86-.8.08-.53.45-.8,1.11-.8.57,0,1.08-.26,1.53-.8.45-.53.71-1.12.8-1.78l11.05-62.61c.16-.65.1-1.25-.18-1.78-.29-.53-.72-.8-1.29-.8-.66,0-.94-.26-.86-.8.08-.53.45-.8,1.11-.8h15.71l5.77,30.81,16.33-30.81h15.71c.66,0,.94.27.86.8-.08.53-.45.8-1.11.8-.57,0-1.11.27-1.6.8-.49.53-.82,1.13-.98,1.78l-11.05,62.61c-.08.66.04,1.25.37,1.78.32.53.78.8,1.35.8.65,0,.94.27.86.8-.08.53-.45.8-1.11.8h-17.55c-.66,0-.94-.26-.86-.8.08-.53.45-.8,1.11-.8.57,0,1.08-.26,1.53-.8.45-.53.72-1.12.8-1.78l8.59-48.25-21.48,40.63-7.73-41.13Z"/>
    <path class="cls-1" d="m343.93,225.37c.08.66.31,1.25.67,1.78.37.53.84.8,1.41.8.65,0,.98.27.98.8s-.33.8-.98.8h-16.94c-.66,0-1-.26-1.04-.8-.04-.53.26-.8.92-.8.57,0,1.04-.26,1.41-.8.37-.53.55-1.12.55-1.78v-9.08c-.08-2.37-.64-4.34-1.66-5.89-1.02-1.55-2.52-2.33-4.48-2.33-1.8,0-3.36.78-4.67,2.33-.74-.16-1.31-.69-1.72-1.6l-6.02,16.57c-.16.66-.16,1.25,0,1.78.16.53.49.8.98.8.65,0,.9.27.74.8-.16.53-.57.8-1.23.8h-10.31c-.65,0-.86-.26-.61-.8.25-.53.66-.8,1.23-.8.49,0,1.04-.26,1.66-.8.61-.53,1-1.12,1.17-1.78l22.83-62.61c.25-.65.29-1.25.12-1.78-.16-.53-.53-.8-1.1-.8-.66,0-.88-.26-.68-.8.2-.53.63-.8,1.29-.8h15.1l.37,66.78Zm-23.2-22.71c1.47-1.23,3.15-1.84,5.03-1.84.9,0,1.84.25,2.82.74.98.49,1.72,1.15,2.21,1.96l-.12-28.24-9.94,27.38Z"/>
    <path class="cls-1" d="m362.65,159.61c-.34-.63-.85-.95-1.53-.95-.78,0-1.12-.32-1.02-.95.1-.63.53-.95,1.32-.95h18.41c-.78,4.68-1,8.97-.66,12.86.34,3.9,1.07,7.53,2.19,10.89,1.12,3.36,2.46,6.58,4.02,9.65,1.56,3.07,3.16,6.12,4.82,9.13l6.58-37.56c.19-.78.1-1.48-.29-2.12-.39-.63-.93-.95-1.61-.95-.78,0-1.12-.32-1.02-.95.1-.63.53-.95,1.32-.95h12.86c.78,0,1.12.32,1.02.95-.1.63-.54.95-1.32.95-.68,0-1.32.32-1.9.95-.58.63-.98,1.34-1.17,2.12l-13.15,74.53c-.1.78.05,1.49.44,2.12.39.63.92.95,1.61.95.78,0,1.12.32,1.02.95-.1.63-.54.95-1.32.95h-12.86c-.78,0-1.12-.32-1.02-.95.1-.63.53-.95,1.32-.95.97,0,1.8-.63,2.48-1.9.29-4.29-.15-8.33-1.32-12.13s-2.68-7.55-4.53-11.25c-1.85-3.7-3.8-7.53-5.85-11.47-2.05-3.95-3.85-8.21-5.41-12.79l-8.33,46.47c-.1.78.05,1.49.44,2.12.39.63.92.95,1.61.95.78,0,1.12.32,1.02.95-.1.63-.54.95-1.32.95h-12.86c-.78,0-1.12-.32-1.02-.95.1-.63.53-.95,1.32-.95.68,0,1.29-.32,1.83-.95.53-.63.85-1.34.95-2.12l13.15-74.53c.19-.78.12-1.48-.22-2.12Z"/>
  </g>
  <text class="cls-2" transform="translate(84.03 262.43)"><tspan class="cls-6" x="0" y="0">L</tspan><tspan x="13.38" y="0">OGI</tspan><tspan class="cls-4" x="55.7" y="0">S</tspan><tspan x="70.68" y="0">TI</tspan><tspan class="cls-3" x="94.2" y="0">C</tspan><tspan x="111.31" y="0">S SE</tspan><tspan class="cls-5" x="163.64" y="0">R</tspan><tspan x="179.97" y="0">VICES</tspan></text>
</svg>